<svg xmlns="http://www.w3.org/2000/svg" viewBox="0 0 1200 630" role="img" aria-labelledby="title desc">
  <title id="title">Dhuni</title>
  <desc id="desc">Dhuni sacred digital campfire for Indian sound by Samooh.</desc>
  <defs>
    <linearGradient id="sky" x1="0" y1="0" x2="0" y2="1">
      <stop offset="0%" stop-color="#101b30" />
      <stop offset="100%" stop-color="#1e2a44" />
    </linearGradient>
    <linearGradient id="ground" x1="0" y1="0" x2="0" y2="1">
      <stop offset="0%" stop-color="#2b2d3f" />
      <stop offset="100%" stop-color="#20212f" />
    </linearGradient>
    <radialGradient id="fireglow" cx="50%" cy="56%" r="26%">
      <stop offset="0%" stop-color="#f2af6b" stop-opacity="0.5" />
      <stop offset="100%" stop-color="#f2af6b" stop-opacity="0" />
    </radialGradient>
    <linearGradient id="flame" x1="0" y1="0" x2="0" y2="1">
      <stop offset="0%" stop-color="#fff1ce" />
      <stop offset="52%" stop-color="#f3be83" />
      <stop offset="100%" stop-color="#d67d50" />
    </linearGradient>
    <style>
      .og-title {
        font-family: "PT Serif", "Iowan Old Style", "Times New Roman", serif;
        letter-spacing: 6px;
      }
      .og-credit {
        font-family: "Inconsolata", "SFMono-Regular", Menlo, Consolas, monospace;
        letter-spacing: 2px;
      }
    </style>
  </defs>

  <rect width="1200" height="630" fill="url(#sky)" />
  <rect y="360" width="1200" height="270" fill="url(#ground)" />

  <path d="M0 330L100 300L220 320L350 310L490 332L630 298L760 315L900 302L1030 322L1200 308V630H0Z" fill="#314362" opacity="0.8" />
  <path d="M0 390L140 410L280 385L430 408L600 392L760 412L920 398L1060 414L1200 396V630H0Z" fill="#26324a" opacity="0.9" />

  <ellipse cx="600" cy="412" rx="215" ry="106" fill="url(#fireglow)" />
  <ellipse cx="600" cy="450" rx="128" ry="42" fill="#2f2628" />
  <ellipse cx="600" cy="440" rx="106" ry="30" fill="#3a2f31" opacity="0.65" />
  <path d="M600 250c30 36 48 63 48 98 0 44-24 77-48 104-24-27-48-60-48-104 0-35 18-62 48-98z" fill="url(#flame)" />
  <path d="M600 286c18 24 28 44 28 69 0 31-14 56-28 76-14-20-28-45-28-76 0-25 10-45 28-69z" fill="#fff6de" opacity="0.6" />

  <g fill="#8ea3c2" opacity="0.9">
    <rect x="440" y="390" width="18" height="28" />
    <rect x="742" y="390" width="18" height="28" />
    <rect x="308" y="432" width="18" height="28" />
    <rect x="874" y="432" width="18" height="28" />
  </g>

  <text x="600" y="128" text-anchor="middle" fill="#f2e9d9" font-size="60" class="og-title">DHUNI</text>
  <text x="600" y="553" text-anchor="middle" fill="#c8b89f" font-size="24" class="og-credit">BY SAMOOH</text>
</svg>
